<?xml version="1.0" encoding="UTF-8" standalone="no"?> <svg xmlns:dc="http://purl.org/dc/elements/1.1/" xmlns:cc="http://creativecommons.org/ns#" xmlns:rdf="http://www.w3.org/1999/02/22-rdf-syntax-ns#" xmlns:svg="http://www.w3.org/2000/svg" xmlns="http://www.w3.org/2000/svg" viewBox="0 0 436.45999 428.44" height="428.44" width="436.45999" xml:space="preserve" id="svg2"> <metadata id="metadata8"></metadata> <defs id="defs6"> <clipPath id="clipPath18" clipPathUnits="userSpaceOnUse"> <path id="path16" d="M 0,321.33 H 327.345 V 0 H 0 Z"></path> </clipPath> </defs> <g transform="matrix(1.3333333,0,0,-1.3333333,0,428.44)" id="g10"> <g id="g12"> <g clip-path="url(#clipPath18)" id="g14"> <g transform="translate(27.0826,72.5638)" id="g20"> <path id="path22" style="fill:#000000;fill-opacity:1;fill-rule:nonzero;stroke:none" d="m 0,0 v -48.488 h 18.012 c 12.616,0 26.893,7.999 26.893,24.28 C 44.905,-8 30.628,0 18.012,0 Z m 47.727,-24.208 c 0,-16.635 -15.77,-24.846 -29.715,-24.846 H -2.324 V 0.565 h 20.336 c 13.945,0 29.715,-8.21 29.715,-24.773"></path> </g> <g transform="translate(140.2247,73.1287)" id="g24"> <path id="path26" style="fill:#000000;fill-opacity:1;fill-rule:nonzero;stroke:none" d="m 0,0 v -34.685 c 0,-8.705 -10.043,-16.35 -22.328,-16.35 -11.952,0 -23.904,5.804 -23.904,16.139 V 0 h 2.323 v -34.896 c 0,-10.122 11.371,-15.572 21.581,-15.572 11.953,0 21.664,7.361 21.664,15.783 l 0,34.685 z"></path> </g> <g transform="translate(181.402,50.053)" id="g28"> <path id="path30" style="fill:#000000;fill-opacity:1;fill-rule:nonzero;stroke:none" d="M 0,0 H -17.596 V -25.977 H 0 c 9.546,0 19.672,4.106 19.672,12.953 C 19.672,-4.105 9.546,0 0,0 M -17.596,22.511 V 0.566 H 0.332 0.748 c 7.387,0.142 14.607,3.611 14.607,10.972 0,7.503 -7.469,10.973 -15.023,10.973 z M 18.178,11.538 c 0,-6.441 -6.64,-10.192 -13.779,-11.254 9.214,-1.133 18.095,-5.521 18.095,-13.308 0,-9.06 -11.952,-13.519 -22.494,-13.519 h -19.92 v 49.619 h 2.324 17.928 c 8.384,0 17.846,-3.893 17.846,-11.538"></path> </g> <g transform="translate(225.9825,41.0638)" id="g32"> <path id="path34" style="fill:#000000;fill-opacity:1;fill-rule:nonzero;stroke:none" d="M 0,0 H 33.201 L 16.186,30.934 Z M -9.961,-17.554 16.85,33.482 h 0.581 L 45.403,-17.554 H 42.829 L 33.45,-0.566 H -0.332 l -8.881,-16.988 z"></path> </g> <g transform="translate(286.8312,23.5096)" id="g36"> <path id="path38" style="fill:#000000;fill-opacity:1;fill-rule:nonzero;stroke:none" d="M 0,0 V 0.566 H 8.716 V 49.054 H 0 v 0.565 H 19.755 V 49.054 H 11.04 V 0.566 h 8.715 V 0 Z"></path> </g> <g transform="translate(172.3751,152.5159)" id="g40"> <path id="path42" style="fill:#000000;fill-opacity:1;fill-rule:nonzero;stroke:none" d="m 0,0 v -59.633 c 0,-3.041 0.49,-4.513 1.569,-4.513 h 7.356 v -0.392 H -9.416 v 0.392 h 7.65 c 0.883,0 1.373,1.472 1.373,4.513 V 0.49 H -9.318 V 0.882 H 10.2 L 29.326,-50.414 46.785,0.882 H 65.91 V 0.49 h -8.827 v -64.636 h 8.827 v -0.392 H 38.055 v 0.392 H 46.98 V 0 L 24.814,-65.714 h -0.49 z"></path> </g> <g transform="translate(256.3248,111.0271)" id="g44"> <path id="path46" style="fill:#000000;fill-opacity:1;fill-rule:nonzero;stroke:none" d="M 0,0 11.279,30.602 22.362,0 Z m 44.01,-22.657 c -1.597,0.43 -2.813,1.401 -3.443,2.894 l -0.103,0.266 c -0.048,0.135 -0.076,0.288 -0.113,0.432 -0.233,0.27 -0.354,0.607 -0.424,0.96 L 16.085,43.646 h -0.49 L -7.356,-18.832 c -0.326,-0.607 -0.958,-1.599 -2.08,-2.481 -0.952,-0.749 -1.886,-1.127 -2.503,-1.322 -1.579,-0.007 -3.156,-0.014 -4.734,-0.022 v -0.392 H 0.784 v 0.392 l -4.27,-0.017 c -0.115,-0.015 -1.739,-0.197 -2.821,1.082 -1,1.181 -0.693,2.607 -0.656,2.76 l 6.865,18.44 h 22.657 l 6.445,-17.42 c -0.213,-2.599 -1.672,-4.25 -3.881,-4.845 h -3.839 v -0.392 h 28.933 v 0.392 z"></path> </g> <g transform="translate(74.8527,94.5003)" id="g48"> <path id="path50" style="fill:#000000;fill-opacity:1;fill-rule:nonzero;stroke:none" d="M 0,0 C -3.74,-3.629 -9.021,-5.493 -15.73,-5.493 H -37.4 L 6.159,59.535 H -19.007 -50.05 v -19.42 h 0.44 c 0,11.28 7.26,19.027 20.789,19.027 H -19.007 -6.6 L -50.05,-5.884 H 6.05 V 13.927 H 5.609 C 5.609,8.336 3.739,3.727 0,0"></path> </g> <g transform="translate(158.8732,153.0056)" id="g52"> <path id="path54" style="fill:#000000;fill-opacity:1;fill-rule:nonzero;stroke:none" d="m 0,0 v 0.392 h -19.028 -0.037 -8.79 V 0 h 8.79 v -0.889 l 0.135,0.399 V -15.995 L -52.703,-48.522 V 0 h 8.827 v 0.392 h -19.029 -0.036 -8.791 V 0 h 8.791 v -0.889 l 0.135,0.399 v -64.145 h -8.925 v -0.392 h 27.855 v 0.392 h -8.827 v 15.568 l 33.773,32.527 v -48.095 h -8.925 v -0.392 H 0 v 0.392 H -8.827 V 0 Z"></path> </g> <g transform="translate(198.608,167.2854)" id="g56"> <path id="path58" style="fill:#000000;fill-opacity:1;fill-rule:nonzero;stroke:none" d="M 0,0 C -6.122,0 -9.434,2.868 -9.512,7.057 V 45.62 h -6.267 V -0.149 h 6.058 0.209 10.274 l 0,0.149 z"></path> </g> <g transform="translate(142.2018,173.6033)" id="g60"> <path id="path62" style="fill:#000000;fill-opacity:1;fill-rule:nonzero;stroke:none" d="m 0,0 c -0.437,-3.784 -3.71,-6.318 -9.465,-6.318 h -0.762 V -6.467 H 0 0.256 6.267 V 22.285 H 0 Z"></path> </g> <path id="path64" style="fill:#000000;fill-opacity:1;fill-rule:nonzero;stroke:none" d="m 152.284,167.137 h 6.267 v 67.254 h -6.267 z"></path> <path id="path66" style="fill:#000000;fill-opacity:1;fill-rule:nonzero;stroke:none" d="m 172.898,167.137 h 6.267 v 88.03 h -6.267 z"></path> <g transform="translate(166.881,298.8977)" id="g68"> <path id="path70" style="fill:#000000;fill-opacity:1;fill-rule:nonzero;stroke:none" d="M 0,0 H -1.561 V -23.749 H -3.914 V -131.761 H 2.353 V -23.749 H 0 Z"></path> </g> </g> </g> </g> </svg> 